<svg xmlns="http://www.w3.org/2000/svg" xmlns:xlink="http://www.w3.org/1999/xlink" version="1.1" width="256" height="256" viewBox="0 0 256 256" xml:space="preserve">

<defs>
</defs>
<g style="stroke: none; stroke-width: 0; stroke-dasharray: none; stroke-linecap: butt; stroke-linejoin: miter; stroke-miterlimit: 10; fill: none; fill-rule: nonzero; opacity: 1;" transform="translate(1.4065934065934016 1.4065934065934016) scale(2.81 2.81)" >
	<path d="M 67.539 57.093 H 52.657 c -0.553 0 -1 0.447 -1 1 v 10.644 c 0 0.553 0.447 1 1 1 h 14.882 c 0.553 0 1 -0.447 1 -1 V 58.093 C 68.539 57.54 68.092 57.093 67.539 57.093 z M 66.539 67.737 H 53.657 v -8.644 h 12.882 V 67.737 z" style="stroke: none; stroke-width: 1; stroke-dasharray: none; stroke-linecap: butt; stroke-linejoin: miter; stroke-miterlimit: 10; fill: rgb(0,0,0); fill-rule: nonzero; opacity: 1;" transform=" matrix(1 0 0 1 0 0) " stroke-linecap="round" />
	<path d="M 41.53 57.093 H 9.209 c -0.552 0 -1 0.447 -1 1 c 0 0.553 0.448 1 1 1 H 41.53 c 0.552 0 1 -0.447 1 -1 C 42.53 57.54 42.082 57.093 41.53 57.093 z" style="stroke: none; stroke-width: 1; stroke-dasharray: none; stroke-linecap: butt; stroke-linejoin: miter; stroke-miterlimit: 10; fill: rgb(0,0,0); fill-rule: nonzero; opacity: 1;" transform=" matrix(1 0 0 1 0 0) " stroke-linecap="round" />
	<path d="M 13.048 63.489 H 9.209 c -0.552 0 -1 0.447 -1 1 c 0 0.553 0.448 1 1 1 h 3.839 c 0.552 0 1 -0.447 1 -1 C 14.048 63.937 13.6 63.489 13.048 63.489 z" style="stroke: none; stroke-width: 1; stroke-dasharray: none; stroke-linecap: butt; stroke-linejoin: miter; stroke-miterlimit: 10; fill: rgb(0,0,0); fill-rule: nonzero; opacity: 1;" transform=" matrix(1 0 0 1 0 0) " stroke-linecap="round" />
	<path d="M 22.542 63.489 h -3.839 c -0.552 0 -1 0.447 -1 1 c 0 0.553 0.448 1 1 1 h 3.839 c 0.552 0 1 -0.447 1 -1 C 23.542 63.937 23.094 63.489 22.542 63.489 z" style="stroke: none; stroke-width: 1; stroke-dasharray: none; stroke-linecap: butt; stroke-linejoin: miter; stroke-miterlimit: 10; fill: rgb(0,0,0); fill-rule: nonzero; opacity: 1;" transform=" matrix(1 0 0 1 0 0) " stroke-linecap="round" />
	<path d="M 32.036 63.489 h -3.839 c -0.552 0 -1 0.447 -1 1 c 0 0.553 0.448 1 1 1 h 3.839 c 0.552 0 1 -0.447 1 -1 C 33.036 63.937 32.588 63.489 32.036 63.489 z" style="stroke: none; stroke-width: 1; stroke-dasharray: none; stroke-linecap: butt; stroke-linejoin: miter; stroke-miterlimit: 10; fill: rgb(0,0,0); fill-rule: nonzero; opacity: 1;" transform=" matrix(1 0 0 1 0 0) " stroke-linecap="round" />
	<path d="M 41.53 63.489 h -3.839 c -0.552 0 -1 0.447 -1 1 c 0 0.553 0.448 1 1 1 h 3.839 c 0.552 0 1 -0.447 1 -1 C 42.53 63.937 42.082 63.489 41.53 63.489 z" style="stroke: none; stroke-width: 1; stroke-dasharray: none; stroke-linecap: butt; stroke-linejoin: miter; stroke-miterlimit: 10; fill: rgb(0,0,0); fill-rule: nonzero; opacity: 1;" transform=" matrix(1 0 0 1 0 0) " stroke-linecap="round" />
	<path d="M 86.304 21.87 l -66.899 -11.4 c -2.411 -0.413 -4.714 1.218 -5.126 3.633 l -2.462 14.446 H 4.442 C 1.992 28.549 0 30.541 0 32.991 v 6.416 v 10.643 v 25.103 c 0 2.449 1.993 4.442 4.442 4.442 h 67.864 c 2.449 0 4.442 -1.993 4.442 -4.442 v -3.129 l 0.98 0.167 c 0.252 0.043 0.505 0.064 0.756 0.064 c 0.912 0 1.8 -0.281 2.56 -0.819 c 0.968 -0.687 1.61 -1.708 1.81 -2.878 l 7.082 -41.561 C 90.348 24.581 88.718 22.282 86.304 21.87 z M 4.442 30.549 h 8.219 h 59.645 c 1.347 0 2.442 1.095 2.442 2.442 v 5.416 H 2 v -5.416 C 2 31.644 3.095 30.549 4.442 30.549 z M 2 40.406 h 72.749 v 8.643 H 2 V 40.406 z M 74.748 75.152 c 0 1.347 -1.096 2.442 -2.442 2.442 H 4.442 C 3.095 77.594 2 76.498 2 75.152 V 51.049 h 72.749 v 19.789 V 75.152 z M 87.965 26.66 l -7.082 41.561 c -0.227 1.328 -1.485 2.223 -2.818 1.998 l -1.316 -0.225 V 50.049 V 39.406 v -6.416 c 0 -2.449 -1.993 -4.442 -4.442 -4.442 H 13.846 l 2.404 -14.11 c 0.226 -1.328 1.488 -2.224 2.818 -1.997 l 66.899 11.4 C 87.295 24.068 88.191 25.332 87.965 26.66 z" style="stroke: none; stroke-width: 1; stroke-dasharray: none; stroke-linecap: butt; stroke-linejoin: miter; stroke-miterlimit: 10; fill: rgb(0,0,0); fill-rule: nonzero; opacity: 1;" transform=" matrix(1 0 0 1 0 0) " stroke-linecap="round" />
</g>
</svg>